<svg xmlns="http://www.w3.org/2000/svg" width="17.337" height="14.4" viewBox="0 0 17.337 14.4">
  <g id="arrow-right" transform="translate(17.337 14.4) rotate(180)">
    <path id="Path_570" data-name="Path 570" d="M16.362,5.84l.027.006H4.788L8.435,2.191a.958.958,0,0,0,0-1.346L7.868.277a.949.949,0,0,0-1.34,0L.276,6.527a.956.956,0,0,0,0,1.345l6.252,6.252a.95.95,0,0,0,1.34,0l.567-.568a.939.939,0,0,0,.277-.67.911.911,0,0,0-.277-.657L4.747,8.553H16.375a.983.983,0,0,0,.962-.973v-.8A.964.964,0,0,0,16.362,5.84Z" transform="translate(0)" fill="#fff"/>
  </g>
</svg>
