<svg id="girl" xmlns="http://www.w3.org/2000/svg" width="27.454" height="28.324" viewBox="0 0 27.454 28.324">
  <path id="Path_1222" data-name="Path 1222" d="M8.439,3.965A2.346,2.346,0,0,1,7.816,5.63a.679.679,0,0,0,.089,1,4.56,4.56,0,0,0,4.062.686l2-3.178C12.757.766,8.439,1.122,8.439,3.965Z" transform="translate(-7.638 -1.622)" fill="#fbc072"/>
  <path id="Path_1223" data-name="Path 1223" d="M70.819,31.448a2.092,2.092,0,0,0-3.018.06,13.778,13.778,0,0,0-1.532,2,2.1,2.1,0,0,0,.291,2.6l.416.416Z" transform="translate(-62.625 -29.077)" fill="#b08bd7"/>
  <path id="Path_1224" data-name="Path 1224" d="M91.928,22.045c.659,3-4.733,4.239-4.733,4.239H76.161s-5.392-1.235-4.733-4.239c.988-4.568-1.442-3.869-1.442-10.353a11.625,11.625,0,0,1,.8-4.245A11.692,11.692,0,0,1,93.37,11.692C93.37,18.176,90.94,17.477,91.928,22.045Z" transform="translate(-66.433 0)" fill="#fccb88"/>
  <path id="Path_1225" data-name="Path 1225" d="M73.59,21.655c0-3.446,1.786-6.643,4.087-9.281a11.694,11.694,0,0,0-7.691,10.987c0,6.484,2.43,5.785,1.442,10.353-.659,3,4.733,4.239,4.733,4.239h9.973C79.093,37.143,73.59,30.156,73.59,21.655Z" transform="translate(-66.433 -11.669)" fill="#fbc072"/>
  <path id="Path_1226" data-name="Path 1226" d="M342.068,399.319a7.578,7.578,0,0,1,1.992,5.567H340.05l-1.117-3.8Z" transform="translate(-320.052 -376.562)" fill="#b08bd7"/>
  <path id="Path_1227" data-name="Path 1227" d="M212.859,344.584h4.271l1.5-3.8-1.5-5.408h-4.271l-1.5,5.408Z" transform="translate(-199.749 -316.26)" fill="#ffb5ec"/>
  <path id="Path_1228" data-name="Path 1228" d="M123.4,399.319a7.578,7.578,0,0,0-1.992,5.567h4.009l1.117-3.8Z" transform="translate(-114.923 -376.562)" fill="#b08bd7"/>
  <path id="Path_1229" data-name="Path 1229" d="M342.068,399.319l-3.135,1.764,1.117,3.8h1.71a7.449,7.449,0,0,1,1.359-4.1A5.472,5.472,0,0,0,342.068,399.319Z" transform="translate(-320.052 -376.562)" fill="#a47cd1"/>
  <path id="Path_1230" data-name="Path 1230" d="M317.136,337.275l-1.9-1.9h-2.615v9.211h2.617a9.3,9.3,0,0,1,2.018-5.567A1.323,1.323,0,0,0,317.136,337.275Z" transform="translate(-295.237 -316.259)" fill="#50e1cd"/>
  <path id="Path_1231" data-name="Path 1231" d="M137.907,400.783a7.449,7.449,0,0,1,1.359,4.1h1.71l1.117-3.8-3.135-1.764A5.472,5.472,0,0,0,137.907,400.783Z" transform="translate(-130.483 -376.563)" fill="#a47cd1"/>
  <path id="Path_1232" data-name="Path 1232" d="M151.96,337.275l1.9-1.9h2.615v9.211H153.86a9.3,9.3,0,0,0-2.018-5.567A1.323,1.323,0,0,1,151.96,337.275Z" transform="translate(-143.367 -316.259)" fill="#50e1cd"/>
  <g id="Group_309" data-name="Group 309" transform="translate(22.288 10.249)">
    <ellipse id="Ellipse_12" data-name="Ellipse 12" cx="2.583" cy="2.583" rx="2.583" ry="2.583" fill="#ffcabd"/>
  </g>
  <path id="Path_1233" data-name="Path 1233" d="M125.5,117.847v0a9.586,9.586,0,0,0-.87-4,2.174,2.174,0,0,0-2.506-1.206,27.238,27.238,0,0,1-12.5,0,2.163,2.163,0,0,0-2.493,1.18,9.626,9.626,0,1,0,18.368,4.033v.012S125.5,117.851,125.5,117.847Z" transform="translate(-100.629 -106.154)" fill="#ffd8d2"/>
  <path id="Path_1234" data-name="Path 1234" d="M67.725,127.871a18.3,18.3,0,0,1-2.675-9.654,10.9,10.9,0,0,1,.579-3.445,2.143,2.143,0,0,0-1.234,1.121,9.553,9.553,0,0,0-.774,2.59l-.108,0a2.583,2.583,0,1,0,0,5.166,1.636,1.636,0,0,0,.7-.133A9.718,9.718,0,0,0,67.725,127.871Z" transform="translate(-57.893 -108.231)" fill="#ffcabd"/>
  <g id="Group_313" data-name="Group 313" transform="translate(6.96 11.946)">
    <g id="Group_312" data-name="Group 312">
      <g id="Group_310" data-name="Group 310">
        <ellipse id="Ellipse_13" data-name="Ellipse 13" cx="2.233" cy="1.778" rx="2.233" ry="1.778" fill="#ff9db0"/>
      </g>
      <g id="Group_311" data-name="Group 311" transform="translate(12.104)">
        <ellipse id="Ellipse_14" data-name="Ellipse 14" cx="2.233" cy="1.778" rx="2.233" ry="1.778" fill="#ff9db0"/>
      </g>
    </g>
  </g>
  <g id="Group_317" data-name="Group 317" transform="translate(10.067 10.672)">
    <g id="Group_314" data-name="Group 314">
      <path id="Path_1235" data-name="Path 1235" d="M184.717,189.03a.427.427,0,0,1-.427-.427v-.913a.427.427,0,1,1,.855,0v.913A.427.427,0,0,1,184.717,189.03Z" transform="translate(-184.29 -187.262)" fill="#423e4f"/>
    </g>
    <g id="Group_315" data-name="Group 315" transform="translate(9.501)">
      <path id="Path_1236" data-name="Path 1236" d="M351.429,189.03A.427.427,0,0,1,351,188.6v-.913a.427.427,0,0,1,.855,0v.913A.427.427,0,0,1,351.429,189.03Z" transform="translate(-351.002 -187.262)" fill="#423e4f"/>
    </g>
    <g id="Group_316" data-name="Group 316" transform="translate(3.498 0.886)">
      <path id="Path_1237" data-name="Path 1237" d="M247.35,204.227a2.088,2.088,0,0,1-1.575-.717.427.427,0,1,1,.645-.562,1.232,1.232,0,0,0,1.86,0,.427.427,0,0,1,.645.562,2.089,2.089,0,0,1-1.575.717Z" transform="translate(-245.67 -202.802)" fill="#423e4f"/>
    </g>
  </g>
</svg>
