<svg xmlns="http://www.w3.org/2000/svg" width="22" height="31.289" viewBox="0 0 22 31.289">
  <g id="google-maps" transform="translate(-168.344 -3351)">
    <g id="google-maps_1_" data-name="google-maps (1)" transform="translate(168.344 3351)">
      <g id="Google_Maps_2_" transform="translate(0.587 9.992)">
        <g id="Group_297" data-name="Group 297">
          <path id="Path_1199" data-name="Path 1199" d="M97.022,169.917l-3.359,5.192-3.2,1.371a21.585,21.585,0,0,1-4.858-7.975l1.919-3.569L90.6,163.5a6.072,6.072,0,0,0-.092,1.008,5.516,5.516,0,0,0,5.5,5.5A6.072,6.072,0,0,0,97.022,169.917Z" transform="translate(-85.6 -163.5)" fill="#ffda2d"/>
        </g>
      </g>
      <path id="Path_1200" data-name="Path 1200" d="M245.917,22.988a6,6,0,0,0,.091-1,5.516,5.516,0,0,0-5.493-5.5h-.007a6.065,6.065,0,0,0-1.008.092l4.877-4.877a10.973,10.973,0,0,1,6.417,6.417l-4.877,4.877S245.917,22.99,245.917,22.988Z" transform="translate(-229.508 -10.985)" fill="#80aef8"/>
      <path id="Path_1201" data-name="Path 1201" d="M266.313,18.117l-1.668,3.257-3.208,1.619s0,0,0-.005a6,6,0,0,0,.091-1,5.516,5.516,0,0,0-5.493-5.5h0v-.919l1.1-2.443L259.9,11.7A10.973,10.973,0,0,1,266.313,18.117Z" transform="translate(-245.028 -10.985)" fill="#4086f4"/>
      <g id="Group_298" data-name="Group 298" transform="translate(5.445 7.132)">
        <path id="Path_1202" data-name="Path 1202" d="M180.938,116.7l-4.877,4.877a5.556,5.556,0,0,1-4.4,4.4h0l-5.309,5.309L165.1,132.54c.312.348.587.66.88.99,2.017,2.292,3.758,4.394,3.758,6.411a.917.917,0,0,0,1.833,0c0-2.017,1.742-4.119,3.758-6.411,2.823-3.172,6.325-7.132,6.325-12.962A10.5,10.5,0,0,0,180.938,116.7Z" transform="translate(-165.098 -116.7)" fill="#59c36a"/>
        <path id="Path_1203" data-name="Path 1203" d="M266.314,116.7l-4.877,4.877h0a5.556,5.556,0,0,1-4.4,4.4h0l-1.006,1.006v13.874a.908.908,0,0,0,.915-.916c0-2.017,1.742-4.119,3.758-6.411,2.823-3.172,6.325-7.132,6.325-12.962A10.5,10.5,0,0,0,266.314,116.7Z" transform="translate(-250.474 -116.7)" fill="#00a66c"/>
      </g>
      <g id="Google_Maps_3_" transform="translate(11.002 16.408)">
        <path id="Path_1204" data-name="Path 1204" d="M256.031,269.506l1.006-1.006a6.088,6.088,0,0,1-1.006.091Z" transform="translate(-256.031 -268.5)" fill="#fdbf00"/>
      </g>
      <path id="Path_1205" data-name="Path 1205" d="M140.442.715l-4.877,4.877a5.564,5.564,0,0,0-2.878,1.522l-2.836-1.186-1.051-2.7A10.9,10.9,0,0,1,136.573,0,10.5,10.5,0,0,1,140.442.715Z" transform="translate(-125.573)" fill="#4086f4"/>
      <path id="Path_1206" data-name="Path 1206" d="M256.031,4.584,259.9.718A10.5,10.5,0,0,0,256.031,0V4.584Z" transform="translate(-245.029 -0.003)" fill="#4175df"/>
      <path id="Path_1207" data-name="Path 1207" d="M83.113,56.687a5.565,5.565,0,0,0-1.522,2.878l-5,5a13.84,13.84,0,0,1-.587-4A10.9,10.9,0,0,1,79.227,52.8Z" transform="translate(-76 -49.573)" fill="#f03800"/>
    </g>
  </g>
</svg>
