<svg xmlns="http://www.w3.org/2000/svg" width="20.185" height="20.188" viewBox="0 0 20.185 20.188"><path d="M20.582,5.936a7.377,7.377,0,0,0-.469-2.449A5.172,5.172,0,0,0,17.159.532,7.4,7.4,0,0,0,14.71.063C13.629.012,13.286,0,10.545,0S7.461.012,6.384.059A7.379,7.379,0,0,0,3.935.528,4.926,4.926,0,0,0,2.144,1.7,4.971,4.971,0,0,0,.981,3.482,7.4,7.4,0,0,0,.512,5.932C.46,7.012.449,7.355.449,10.1S.46,13.18.508,14.257a7.376,7.376,0,0,0,.469,2.449A5.171,5.171,0,0,0,3.931,19.66a7.4,7.4,0,0,0,2.449.469c1.077.047,1.42.059,4.161.059s3.084-.012,4.161-.059a7.375,7.375,0,0,0,2.449-.469A5.164,5.164,0,0,0,20.1,16.706a7.4,7.4,0,0,0,.469-2.449c.047-1.077.059-1.42.059-4.161s0-3.084-.051-4.161Zm-1.818,8.243a5.533,5.533,0,0,1-.347,1.873A3.349,3.349,0,0,1,16.5,17.968a5.553,5.553,0,0,1-1.873.347c-1.065.047-1.384.059-4.078.059s-3.017-.012-4.078-.059A5.531,5.531,0,0,1,4.6,17.968a3.107,3.107,0,0,1-1.159-.753,3.139,3.139,0,0,1-.753-1.159,5.554,5.554,0,0,1-.347-1.873C2.29,13.117,2.279,12.8,2.279,10.1s.012-3.017.059-4.078a5.531,5.531,0,0,1,.347-1.873,3.069,3.069,0,0,1,.757-1.16A3.134,3.134,0,0,1,4.6,2.24a5.557,5.557,0,0,1,1.873-.347c1.065-.047,1.384-.059,4.078-.059s3.017.012,4.078.059A5.534,5.534,0,0,1,16.5,2.24a3.1,3.1,0,0,1,1.159.753,3.138,3.138,0,0,1,.753,1.16,5.556,5.556,0,0,1,.347,1.873c.047,1.065.059,1.384.059,4.078s-.012,3.009-.059,4.074Zm0,0" transform="translate(-0.449 0)" fill="#c13584"/><path d="M130.135,124.5a5.186,5.186,0,1,0,5.186,5.186A5.187,5.187,0,0,0,130.135,124.5Zm0,8.55a3.364,3.364,0,1,1,3.364-3.364A3.365,3.365,0,0,1,130.135,133.05Zm0,0" transform="translate(-120.039 -119.59)" fill="#c13584"/><path d="M364.871,89.813A1.211,1.211,0,1,1,363.66,88.6,1.211,1.211,0,0,1,364.871,89.813Zm0,0" transform="translate(-348.173 -85.107)" fill="#c13584"/></svg>