<svg id="instagram" xmlns="http://www.w3.org/2000/svg" width="19.864" height="19.868" viewBox="0 0 19.864 19.868">
  <path id="Path_1127" data-name="Path 1127" d="M20.262,5.841a7.26,7.26,0,0,0-.462-2.41A5.089,5.089,0,0,0,16.893.524a7.278,7.278,0,0,0-2.41-.462C13.419.012,13.082,0,10.384,0S7.349.012,6.29.058A7.262,7.262,0,0,0,3.88.52,4.848,4.848,0,0,0,2.117,1.669,4.892,4.892,0,0,0,.973,3.427a7.279,7.279,0,0,0-.462,2.41C.46,6.9.449,7.238.449,9.936S.46,12.971.507,14.03a7.259,7.259,0,0,0,.462,2.41,5.089,5.089,0,0,0,2.907,2.907,7.279,7.279,0,0,0,2.41.462c1.059.047,1.4.058,4.095.058s3.035-.012,4.095-.058a7.258,7.258,0,0,0,2.41-.462,5.082,5.082,0,0,0,2.907-2.907,7.284,7.284,0,0,0,.462-2.41c.047-1.06.058-1.4.058-4.095s0-3.035-.05-4.095Zm-1.789,8.112a5.446,5.446,0,0,1-.342,1.844,3.3,3.3,0,0,1-1.886,1.886,5.465,5.465,0,0,1-1.844.341c-1.048.047-1.362.058-4.013.058s-2.969-.012-4.013-.058a5.443,5.443,0,0,1-1.844-.341,3.057,3.057,0,0,1-1.141-.741A3.089,3.089,0,0,1,2.649,15.8a5.466,5.466,0,0,1-.341-1.844c-.047-1.048-.058-1.362-.058-4.013s.012-2.969.058-4.013a5.443,5.443,0,0,1,.341-1.844,3.02,3.02,0,0,1,.745-1.141A3.084,3.084,0,0,1,4.535,2.2a5.469,5.469,0,0,1,1.844-.342C7.427,1.816,7.741,1.8,10.392,1.8s2.969.012,4.013.058a5.446,5.446,0,0,1,1.844.342,3.055,3.055,0,0,1,1.141.741,3.088,3.088,0,0,1,.741,1.141,5.468,5.468,0,0,1,.342,1.844c.047,1.048.058,1.362.058,4.013s-.012,2.961-.058,4.009Zm0,0" transform="translate(-0.449 0)" fill="#fff"/>
  <path id="Path_1128" data-name="Path 1128" d="M130.053,124.5a5.1,5.1,0,1,0,5.1,5.1A5.1,5.1,0,0,0,130.053,124.5Zm0,8.414a3.311,3.311,0,1,1,3.311-3.311A3.311,3.311,0,0,1,130.053,132.914Zm0,0" transform="translate(-120.117 -119.668)" fill="#fff"/>
  <path id="Path_1129" data-name="Path 1129" d="M364.833,89.793a1.192,1.192,0,1,1-1.192-1.191A1.192,1.192,0,0,1,364.833,89.793Zm0,0" transform="translate(-348.4 -85.163)" fill="#fff"/>
</svg>
