<svg xmlns="http://www.w3.org/2000/svg" width="20.618" height="20.623" viewBox="0 0 20.618 20.623"><g transform="translate(0 -0.002)"><g transform="translate(0 0.002)"><path d="M20.224,16.4l-2.286-1.53L15.9,13.52a.905.905,0,0,0-1.209.2l-1.258,1.616a.9.9,0,0,1-1.143.237,14.644,14.644,0,0,1-4.089-3.156A14.749,14.749,0,0,1,5.055,8.33a.9.9,0,0,1,.237-1.143L6.907,5.928a.905.905,0,0,0,.2-1.209L5.792,2.75,4.226.4A.905.905,0,0,0,3.013.129L1.206,1.211A2.206,2.206,0,0,0,.2,2.5C-.288,4.309-.388,8.275,5.978,14.648s10.338,6.266,12.138,5.772a2.206,2.206,0,0,0,1.293-1l1.084-1.81a.905.905,0,0,0-.269-1.208Z" transform="translate(0 -0.002)" fill="#333"/></g></g></svg>