<svg xmlns="http://www.w3.org/2000/svg" width="21.591" height="20.242" viewBox="0 0 21.591 20.242"><path d="M21.168,31.1c-2.887-.475-4.187-3.432-4.24-3.557a.2.2,0,0,0-.012-.024.892.892,0,0,1-.1-.734c.158-.37.762-.561,1.162-.688.116-.036.225-.072.316-.107a2.444,2.444,0,0,0,.861-.514.818.818,0,0,0,.262-.588.926.926,0,0,0-.694-.8,1.254,1.254,0,0,0-.47-.089,1.046,1.046,0,0,0-.437.089,2.454,2.454,0,0,1-.9.256.826.826,0,0,1-.3-.065c.008-.135.016-.274.026-.417l0-.062a10.688,10.688,0,0,0-.275-4.359,5.864,5.864,0,0,0-1.321-1.891,5.525,5.525,0,0,0-1.58-1.042A6.244,6.244,0,0,0,11,15.988h-.054l-.371,0a6.268,6.268,0,0,0-2.468.521,5.494,5.494,0,0,0-1.575,1.04A5.882,5.882,0,0,0,5.219,19.44,10.7,10.7,0,0,0,4.943,23.8v0c.009.157.02.32.03.479a.865.865,0,0,1-.354.066,2.341,2.341,0,0,1-.962-.258.864.864,0,0,0-.366-.076,1.293,1.293,0,0,0-.646.181.894.894,0,0,0-.457.584.806.806,0,0,0,.308.757,2.654,2.654,0,0,0,.8.46c.092.036.2.07.316.107.4.127,1.005.318,1.163.688a.9.9,0,0,1-.1.734.191.191,0,0,0-.011.024,7.146,7.146,0,0,1-1.088,1.681,6.1,6.1,0,0,1-1.312,1.158A4.827,4.827,0,0,1,.423,31.1.5.5,0,0,0,0,31.629a.639.639,0,0,0,.053.22h0a1.349,1.349,0,0,0,.731.625,8.353,8.353,0,0,0,2.112.549,2.562,2.562,0,0,1,.13.464c.035.162.072.329.124.506a.553.553,0,0,0,.579.421,2.819,2.819,0,0,0,.5-.069,5.647,5.647,0,0,1,1.132-.128,4.92,4.92,0,0,1,.81.069,3.846,3.846,0,0,1,1.513.781,4.9,4.9,0,0,0,2.982,1.162q.055,0,.109,0c.043,0,.1,0,.155,0A4.905,4.905,0,0,0,13.91,35.07h0a3.86,3.86,0,0,1,1.513-.78,4.921,4.921,0,0,1,.81-.069,5.674,5.674,0,0,1,1.132.12,2.736,2.736,0,0,0,.5.061h.024a.547.547,0,0,0,.555-.414c.051-.174.088-.336.124-.5a2.65,2.65,0,0,1,.128-.462,8.411,8.411,0,0,0,2.112-.549,1.354,1.354,0,0,0,.73-.623.641.641,0,0,0,.054-.223A.5.5,0,0,0,21.168,31.1Z" transform="translate(0 -15.988)" fill="#ffeb3b"/></svg>