<svg xmlns="http://www.w3.org/2000/svg" width="21.192" height="19.868" viewBox="0 0 21.192 19.868">
  <path id="snapchat" d="M20.776,30.824c-2.833-.466-4.11-3.368-4.162-3.492a.2.2,0,0,0-.012-.024.876.876,0,0,1-.1-.721c.155-.363.748-.551,1.14-.676.114-.036.221-.07.31-.1a2.4,2.4,0,0,0,.845-.5.8.8,0,0,0,.257-.578.909.909,0,0,0-.681-.788,1.231,1.231,0,0,0-.461-.087,1.026,1.026,0,0,0-.429.087,2.409,2.409,0,0,1-.883.252.811.811,0,0,1-.293-.064c.008-.132.016-.269.025-.409l0-.061a10.491,10.491,0,0,0-.27-4.278,5.755,5.755,0,0,0-1.3-1.856A5.423,5.423,0,0,0,13.22,16.5a6.129,6.129,0,0,0-2.42-.511h-.053l-.364,0A6.152,6.152,0,0,0,7.96,16.5a5.392,5.392,0,0,0-1.546,1.021,5.774,5.774,0,0,0-1.291,1.852,10.5,10.5,0,0,0-.272,4.276v0c.009.154.02.314.029.47a.849.849,0,0,1-.347.065,2.3,2.3,0,0,1-.944-.253.848.848,0,0,0-.359-.074,1.269,1.269,0,0,0-.634.177.878.878,0,0,0-.449.574.791.791,0,0,0,.3.743,2.6,2.6,0,0,0,.789.452c.09.036.2.069.31.1.392.125.987.313,1.142.676a.882.882,0,0,1-.1.721.188.188,0,0,0-.011.024,7.014,7.014,0,0,1-1.068,1.65A5.99,5.99,0,0,1,2.223,30.12a4.738,4.738,0,0,1-1.808.7A.5.5,0,0,0,0,31.34a.628.628,0,0,0,.052.216h0a1.324,1.324,0,0,0,.718.613,8.2,8.2,0,0,0,2.073.539,2.515,2.515,0,0,1,.127.456c.034.159.07.323.122.5a.543.543,0,0,0,.568.413,2.767,2.767,0,0,0,.487-.068,5.543,5.543,0,0,1,1.111-.126,4.829,4.829,0,0,1,.795.068,3.775,3.775,0,0,1,1.485.767,4.807,4.807,0,0,0,2.927,1.14q.054,0,.107,0c.042,0,.1,0,.152,0a4.815,4.815,0,0,0,2.927-1.139h0a3.788,3.788,0,0,1,1.485-.766,4.83,4.83,0,0,1,.795-.068A5.569,5.569,0,0,1,17.045,34a2.685,2.685,0,0,0,.487.06h.024a.536.536,0,0,0,.544-.407c.05-.171.086-.33.122-.493a2.6,2.6,0,0,1,.126-.453,8.256,8.256,0,0,0,2.073-.539,1.329,1.329,0,0,0,.717-.612.63.63,0,0,0,.053-.219A.493.493,0,0,0,20.776,30.824Z" transform="translate(0 -15.988)" fill="#fff"/>
</svg>
