<svg xmlns="http://www.w3.org/2000/svg" width="24.452" height="19.867" viewBox="0 0 24.452 19.867">
  <path id="twitter" d="M24.452,50.352a10.451,10.451,0,0,1-2.888.792,4.985,4.985,0,0,0,2.205-2.771,10.018,10.018,0,0,1-3.179,1.213,5.013,5.013,0,0,0-8.671,3.428,5.162,5.162,0,0,0,.116,1.143A14.189,14.189,0,0,1,1.7,48.914a5.014,5.014,0,0,0,1.54,6.7A4.951,4.951,0,0,1,.978,55v.055a5.036,5.036,0,0,0,4.016,4.926,5,5,0,0,1-1.314.165,4.433,4.433,0,0,1-.949-.086,5.061,5.061,0,0,0,4.684,3.492A10.072,10.072,0,0,1,1.2,65.686,9.391,9.391,0,0,1,0,65.618a14.113,14.113,0,0,0,7.69,2.25A14.169,14.169,0,0,0,21.958,53.6c0-.222-.008-.436-.018-.648A10,10,0,0,0,24.452,50.352Z" transform="translate(0 -48)" fill="#fff"/>
</svg>
