<svg xmlns="http://www.w3.org/2000/svg" width="24.847" height="20.188" viewBox="0 0 24.847 20.188"><path d="M24.847,50.39a10.62,10.62,0,0,1-2.935.8,5.065,5.065,0,0,0,2.241-2.816,10.18,10.18,0,0,1-3.23,1.233A5.094,5.094,0,0,0,12.112,53.1a5.245,5.245,0,0,0,.118,1.162,14.418,14.418,0,0,1-10.5-5.328A5.1,5.1,0,0,0,3.3,55.737a5.031,5.031,0,0,1-2.3-.627v.056a5.117,5.117,0,0,0,4.081,5.005,5.084,5.084,0,0,1-1.336.168,4.5,4.5,0,0,1-.964-.087A5.142,5.142,0,0,0,7.535,63.8a10.235,10.235,0,0,1-6.316,2.173A9.543,9.543,0,0,1,0,65.9a14.341,14.341,0,0,0,7.814,2.286,14.4,14.4,0,0,0,14.5-14.5c0-.225-.008-.443-.019-.658A10.162,10.162,0,0,0,24.847,50.39Z" transform="translate(0 -48)" fill="#1da1f2"/></svg>