<svg xmlns="http://www.w3.org/2000/svg" width="29.21" height="27" viewBox="0 0 29.21 27">
  <g id="upload" transform="translate(0 -18.4)">
    <g id="Group_328" data-name="Group 328" transform="translate(0 18.4)">
      <path id="Path_1238" data-name="Path 1238" d="M23.756,25.452A8.461,8.461,0,0,0,8.079,22.641a4.847,4.847,0,0,0-.889-.084,4.637,4.637,0,0,0-4.631,4.631,5.062,5.062,0,0,0,.1.961A6.444,6.444,0,0,0,0,33.344,6.89,6.89,0,0,0,1.748,37.9a6.238,6.238,0,0,0,4.325,2.174h5.214a.811.811,0,0,0,0-1.622H6.145a5.115,5.115,0,0,1-4.523-5.118,4.814,4.814,0,0,1,2.385-4.145.818.818,0,0,0,.354-.985,2.942,2.942,0,0,1-.18-1.033A3.015,3.015,0,0,1,7.19,24.166a2.958,2.958,0,0,1,1.027.18.815.815,0,0,0,1.015-.414,6.839,6.839,0,0,1,12.992,2.252.81.81,0,0,0,.673.721,5.845,5.845,0,0,1-.553,11.545H17.918a.811.811,0,0,0,0,1.622h4.517a7.186,7.186,0,0,0,4.817-2.379,7.476,7.476,0,0,0-3.5-12.241Z" transform="translate(0 -18.4)" fill="#7582d5"/>
      <path id="Path_1239" data-name="Path 1239" d="M168.194,191.082a.808.808,0,0,0,0-1.147L163.9,185.64a.821.821,0,0,0-.571-.24.8.8,0,0,0-.571.24l-4.295,4.295a.814.814,0,0,0,.571,1.388.791.791,0,0,0,.571-.24l2.913-2.913v13.389a.811.811,0,1,0,1.622,0V188.169l2.913,2.913A.8.8,0,0,0,168.194,191.082Z" transform="translate(-148.721 -175.369)" fill="#7582d5"/>
    </g>
  </g>
</svg>
