<svg xmlns="http://www.w3.org/2000/svg" width="50" height="50" viewBox="0 0 50 50">
  <g id="user" transform="translate(-182 -791)">
    <circle id="Ellipse_25" data-name="Ellipse 25" cx="25" cy="25" r="25" transform="translate(182 791)" fill="#34373c"/>
    <g id="user-2" data-name="user" transform="translate(195 804)">
      <g id="Group_339" data-name="Group 339" transform="translate(0)">
        <path id="Path_1241" data-name="Path 1241" d="M20.485,15.515a11.954,11.954,0,0,0-4.56-2.86,6.938,6.938,0,1,0-7.85,0A12.019,12.019,0,0,0,0,24H1.875a10.125,10.125,0,1,1,20.25,0H24A11.922,11.922,0,0,0,20.485,15.515ZM12,12a5.063,5.063,0,1,1,5.062-5.062A5.068,5.068,0,0,1,12,12Z" transform="translate(0)" fill="#fff"/>
      </g>
    </g>
  </g>
</svg>
