<svg xmlns="http://www.w3.org/2000/svg" width="19.871" height="19.871" viewBox="0 0 19.871 19.871"><path d="M9.938,0h0A9.929,9.929,0,0,0,1.891,15.759L.653,19.45l3.819-1.221A9.934,9.934,0,1,0,9.938,0Z" fill="#25d366"/><path d="M118.82,126.574a2.8,2.8,0,0,1-1.95,1.4c-.519.111-1.2.2-3.48-.748a12.446,12.446,0,0,1-4.947-4.369,5.674,5.674,0,0,1-1.18-3,3.172,3.172,0,0,1,1.016-2.418,1.444,1.444,0,0,1,1.016-.356c.123,0,.233.006.333.011.292.012.438.03.631.491.24.577.823,2,.893,2.15a.591.591,0,0,1,.042.538,1.717,1.717,0,0,1-.322.456c-.147.169-.286.3-.432.479-.134.158-.286.327-.117.618a8.82,8.82,0,0,0,1.612,2,7.3,7.3,0,0,0,2.33,1.437.628.628,0,0,0,.7-.111,12.015,12.015,0,0,0,.776-1.028.555.555,0,0,1,.713-.216c.268.093,1.688.795,1.98.94s.484.216.555.339A2.475,2.475,0,0,1,118.82,126.574Z" transform="translate(-103.101 -112.544)" fill="#fff"/></svg>