<svg id="whatsapp-white" xmlns="http://www.w3.org/2000/svg" width="26.477" height="26.477" viewBox="0 0 26.477 26.477">
  <g id="whatsapp">
    <path id="Path_97" data-name="Path 97" d="M13.242,0h-.007A13.23,13.23,0,0,0,2.52,21L.87,25.916l5.088-1.627A13.236,13.236,0,1,0,13.242,0Z" fill="#fff"/>
    <path id="Path_98" data-name="Path 98" d="M122.662,129.727a3.736,3.736,0,0,1-2.6,1.868c-.692.147-1.6.265-4.637-1-3.89-1.612-6.4-5.565-6.591-5.822a7.561,7.561,0,0,1-1.572-3.993,4.226,4.226,0,0,1,1.354-3.222,1.923,1.923,0,0,1,1.354-.475c.164,0,.311.008.443.015.389.017.584.04.841.654.319.769,1.1,2.669,1.19,2.864a.788.788,0,0,1,.056.717,2.288,2.288,0,0,1-.429.607c-.2.225-.381.4-.576.639-.179.21-.381.435-.156.824a11.752,11.752,0,0,0,2.148,2.669,9.733,9.733,0,0,0,3.1,1.915.837.837,0,0,0,.933-.147,16.006,16.006,0,0,0,1.034-1.37.739.739,0,0,1,.95-.288c.357.124,2.249,1.059,2.638,1.253s.645.288.74.452A3.3,3.3,0,0,1,122.662,129.727Z" transform="translate(-101.717 -111.033)" fill="#25d366"/>
  </g>
</svg>
