<svg id="whatsapp" xmlns="http://www.w3.org/2000/svg" width="19.867" height="19.867" viewBox="0 0 19.867 19.867">
  <g id="whatsapp-2" data-name="whatsapp">
    <path id="Path_97" data-name="Path 97" d="M9.936,0h0a9.927,9.927,0,0,0-8.04,15.756L.653,19.446l3.818-1.221A9.932,9.932,0,1,0,9.936,0Z" fill="#fff"/>
    <path id="Path_98" data-name="Path 98" d="M118.818,126.572a2.8,2.8,0,0,1-1.949,1.4c-.519.11-1.2.2-3.479-.748a12.444,12.444,0,0,1-4.946-4.368,5.673,5.673,0,0,1-1.18-3,3.171,3.171,0,0,1,1.016-2.418,1.443,1.443,0,0,1,1.016-.356c.123,0,.233.006.333.011.292.012.438.03.631.49.24.577.823,2,.893,2.149a.591.591,0,0,1,.042.538,1.717,1.717,0,0,1-.322.456c-.147.169-.286.3-.432.479-.134.158-.286.327-.117.618a8.818,8.818,0,0,0,1.612,2,7.3,7.3,0,0,0,2.329,1.437.628.628,0,0,0,.7-.11,12.017,12.017,0,0,0,.776-1.028.554.554,0,0,1,.713-.216c.268.093,1.687.795,1.979.94s.484.216.555.339A2.474,2.474,0,0,1,118.818,126.572Z" transform="translate(-103.102 -112.545)" fill="#34373c"/>
  </g>
</svg>
